HIERARCHY
ROOT root
{
	OFFSET 0.000000 0.000000 0.000000
	CHANNELS 6 Xposition Yposition Zposition Zrotation Yrotation Xrotation
	JOINT lhip
	{
		OFFSET 0.058581 -0.082280 -0.017664
		CHANNELS 3 Zrotation Yrotation Xrotation
		JOINT lknee
		{
			OFFSET 0.043451 -0.386469 0.008037
			CHANNELS 3 Zrotation Yrotation Xrotation
			JOINT lankle
			{
				OFFSET -0.014790 -0.426874 -0.037428
				CHANNELS 3 Zrotation Yrotation Xrotation
				JOINT ltoe
				{
					OFFSET 0.041054 -0.060286 0.122042
					CHANNELS 3 Zrotation Yrotation Xrotation
					End Site
					{
						OFFSET 0.000000 0.000000 0.000000
					}
				}
			}
		}
	}
	JOINT rhip
	{
		OFFSET -0.060310 -0.090513 -0.013543
		CHANNELS 3 Zrotation Yrotation Xrotation
		JOINT rknee
		{
			OFFSET -0.043257 -0.383688 -0.004843
			CHANNELS 3 Zrotation Yrotation Xrotation
			JOINT rankle
			{
				OFFSET 0.019056 -0.420046 -0.034562
				CHANNELS 3 Zrotation Yrotation Xrotation
				JOINT rtoe
				{
					OFFSET -0.034840 -0.062106 0.130323
					CHANNELS 3 Zrotation Yrotation Xrotation
					End Site
					{
						OFFSET 0.000000 0.000000 0.000000
					}
				}
			}
		}
	}
	JOINT lowerback
	{
		OFFSET 0.004439 0.124404 -0.038385
		CHANNELS 3 Zrotation Yrotation Xrotation
		JOINT upperback
		{
			OFFSET 0.004488 0.137956 0.026820
			CHANNELS 3 Zrotation Yrotation Xrotation
			JOINT chest
			{
				OFFSET -0.002265 0.056032 0.002855
				CHANNELS 3 Zrotation Yrotation Xrotation
				JOINT lowerneck
				{
					OFFSET -0.013390 0.211636 -0.033468
					CHANNELS 3 Zrotation Yrotation Xrotation
					JOINT upperneck
					{
						OFFSET 0.010113 0.088937 0.050410
						CHANNELS 3 Zrotation Yrotation Xrotation
						End Site
						{
							OFFSET 0.000000 0.000000 0.000000
						}
					}
				}
				JOINT lclavicle
				{
					OFFSET 0.071702 0.114000 -0.018898
					CHANNELS 3 Zrotation Yrotation Xrotation
					JOINT lshoulder
					{
						OFFSET 0.122921 0.045205 -0.019046
						CHANNELS 3 Zrotation Yrotation Xrotation
						JOINT lelbow
						{
							OFFSET 0.255332 -0.015649 -0.022946
							CHANNELS 3 Zrotation Yrotation Xrotation
							JOINT lwrist
							{
								OFFSET 0.265709 0.012698 -0.007375
								CHANNELS 3 Zrotation Yrotation Xrotation
								End Site
								{
									OFFSET 0.000000 0.000000 0.000000
								}
							}
						}
					}
				}
				JOINT rclavicle
				{
					OFFSET -0.082954 0.112472 -0.023707
					CHANNELS 3 Zrotation Yrotation Xrotation
					JOINT rshoulder
					{
						OFFSET -0.113228 0.046853 -0.008472
						CHANNELS 3 Zrotation Yrotation Xrotation
						JOINT relbow
						{
							OFFSET -0.260127 -0.014369 -0.031269
							CHANNELS 3 Zrotation Yrotation Xrotation
							JOINT rwrist
							{
								OFFSET -0.269108 0.006794 -0.006027
								CHANNELS 3 Zrotation Yrotation Xrotation
								End Site
								{
									OFFSET 0.000000 0.000000 0.000000
								}
							}
						}
					}
				}
			}
		}
	}
}
MOTION
Frames: 15
Frame Time: 0.033333
1.465911 0.130694 0.827268 33.281159 -3.654828 80.667588 29.222530 24.239177 -24.256610 -5.924293 19.996270 30.462593 -12.780652 3.544321 15.846507 0.000000 -0.000000 0.000000 -9.140569 -8.836549 -26.573094 -4.745875 -8.659439 77.710249 -6.179865 -10.463131 -47.671383 0.000000 -0.000000 0.000000 -3.182328 3.730778 20.363106 -5.781065 9.137855 -4.432960 -0.583307 5.264386 -8.793306 -2.916925 12.882624 -2.544953 6.031605 19.188034 17.035737 -20.733252 -10.431521 -8.195167 -36.427762 -16.275111 2.031103 120.234348 -63.006126 -96.770883 38.653519 -9.188689 -0.089973 18.909827 22.625106 6.840764 53.105539 6.924673 22.195737 148.095150 64.861634 152.474574 -4.045501 22.671042 -79.176597 
1.504715 0.130500 0.813485 31.436142 -3.656618 79.554890 29.102545 25.104731 -24.331430 -6.068283 18.156445 37.905210 -8.661170 2.974041 4.021265 0.000000 -0.000000 0.000000 -11.478824 -9.017133 -25.645852 -5.225196 -7.731969 80.499709 -4.679549 -12.056151 -49.092594 0.000000 -0.000000 0.000000 -2.153700 2.711134 20.918615 -6.573939 9.002506 -4.578074 -1.036941 5.062179 -8.362491 -2.871679 12.551448 -2.198328 6.075759 22.026771 16.754148 -23.126080 -9.855207 -7.867186 -34.065085 -13.140190 -0.516984 105.674806 -64.709862 -83.708363 35.583172 -11.211574 5.811731 19.593499 21.864545 7.948292 51.259721 1.986791 21.542572 148.250213 66.667759 146.282805 -2.894991 21.867136 -85.975165 
1.533050 0.132384 0.801554 31.555897 -2.953224 79.038113 29.063797 25.051804 -26.489269 -5.801728 17.022172 44.610801 -7.183221 3.119341 -3.019843 0.000000 -0.000000 0.000000 -12.712015 -9.732306 -24.916043 -7.447688 -8.558797 82.509449 -3.073245 -14.300479 -49.105978 0.000000 -0.000000 0.000000 -3.002621 2.114469 21.392660 -5.388446 7.241518 -3.515435 -0.830459 4.373811 -8.405160 -0.911226 12.809763 -3.533868 6.118433 21.626912 16.808246 -23.887950 -11.305194 -6.389422 -28.232674 -9.560816 -1.490770 101.199757 -65.494456 -79.008749 34.410340 -18.091638 8.225346 21.324310 22.406658 7.550945 47.823846 1.510757 22.457789 143.668897 65.537757 143.459848 1.097734 24.345595 -76.841461 
1.555194 0.134457 0.794491 31.161818 -2.142830 79.325579 30.244031 25.008165 -27.950348 -6.396506 17.372987 49.314651 -7.026064 3.046523 -6.597981 0.000000 -0.000000 0.000000 -13.958351 -10.328166 -24.772115 -7.559564 -9.578459 83.330017 -2.204941 -15.116666 -48.685955 0.000000 -0.000000 0.000000 -3.604485 2.722499 21.319905 -4.289093 6.736426 -2.512707 -0.503381 4.200986 -8.788826 -0.001443 13.091393 -3.578530 5.880812 20.350825 16.415724 -23.661179 -12.853182 -5.633055 -25.194573 -9.243893 -1.303426 96.365064 -65.737307 -74.749000 34.791850 -20.725638 9.008219 22.818475 22.884342 8.240632 45.801745 1.153444 22.958008 145.993212 64.203244 145.356504 0.392902 25.611815 -78.995895 
1.573583 0.135205 0.790890 30.535390 -1.318731 80.085324 31.597299 25.991959 -28.423063 -7.166421 18.825200 51.828427 -6.415714 2.248179 -9.129047 0.000000 -0.000000 0.000000 -15.500978 -11.080920 -24.642879 -6.177781 -10.454982 83.296540 -1.887782 -13.568305 -48.969254 0.000000 -0.000000 0.000000 -3.423446 3.635725 20.799506 -3.679805 6.961424 -2.271428 -0.314501 4.230651 -8.666943 0.151775 14.117412 -3.349106 5.409832 19.760539 16.944407 -23.175042 -13.228760 -5.957617 -25.578708 -11.572963 -2.032116 91.836783 -64.799766 -70.608766 34.243336 -21.112179 9.049427 23.842816 21.889804 8.656081 44.600925 1.294245 22.358730 145.275438 64.113275 144.724185 0.177873 26.215281 -80.047994 
1.588131 0.135910 0.789659 30.340866 -0.068743 81.026735 32.700598 27.435796 -29.067521 -7.803486 19.679897 53.200829 -5.954020 1.179347 -10.678213 0.000000 -0.000000 0.000000 -16.320006 -12.042044 -24.476102 -5.015441 -11.359855 82.799854 -1.859683 -11.419023 -49.161510 0.000000 -0.000000 0.000000 -3.009965 3.891786 20.341905 -3.098266 7.099445 -2.461196 0.054889 4.332710 -8.413088 0.241604 14.590346 -3.440623 5.297662 20.003304 17.228359 -23.479654 -12.893273 -6.501622 -26.690855 -14.191563 -3.100931 91.957014 -63.274882 -71.233582 33.406965 -20.178145 8.155330 24.577654 20.605583 8.914686 43.304215 1.429027 21.543014 142.906829 64.009345 142.054517 0.424871 26.732859 -81.374538 
1.598650 0.136723 0.790359 30.771475 1.224694 81.594045 33.224220 28.297901 -29.817557 -8.075489 19.806121 53.926876 -5.700628 0.413592 -11.650523 0.000000 -0.000000 0.000000 -16.660804 -13.011969 -23.809761 -4.712093 -12.419903 82.127472 -1.918410 -9.783957 -49.004933 0.000000 -0.000000 0.000000 -2.680119 3.812131 20.419309 -2.563795 6.773079 -2.311945 0.435300 4.314352 -8.572777 0.503011 14.499774 -3.643264 5.534320 20.126962 17.031419 -23.941816 -13.314158 -6.630627 -26.965970 -15.510078 -4.116342 93.255256 -61.796738 -72.439813 32.263441 -19.801475 8.981130 25.054461 20.210327 9.396792 42.624891 0.825526 20.855366 141.629811 63.685450 141.068333 1.106302 27.535299 -81.453677 
1.606077 0.136941 0.792129 31.424735 2.033865 81.954914 33.308074 28.458436 -30.471816 -8.210983 19.826342 54.325491 -5.755557 0.035001 -12.244243 0.000000 -0.000000 0.000000 -16.892157 -13.629364 -22.965911 -4.703834 -13.261051 81.279082 -1.837442 -8.974352 -48.781442 0.000000 -0.000000 0.000000 -2.787620 3.806305 20.372216 -2.049245 6.126615 -1.838687 0.722865 4.033358 -8.852376 0.958992 14.625503 -3.500627 5.687349 20.003084 16.978745 -24.192937 -14.060274 -6.288301 -26.205186 -15.830415 -4.565995 93.217133 -60.808450 -72.511546 32.078300 -20.211639 9.382341 25.554245 20.086395 9.564073 42.193773 0.327888 20.853994 140.705781 63.424123 140.126586 1.076978 27.673939 -82.115163 
1.612055 0.136477 0.793517 31.734585 2.360789 82.315346 33.421072 28.432394 -30.680300 -8.417521 20.209485 54.552478 -5.951179 -0.190928 -12.693885 0.000000 -0.000000 0.000000 -16.892411 -13.853431 -22.634509 -4.494931 -13.328374 80.541210 -1.730616 -8.980838 -48.636344 0.000000 -0.000000 0.000000 -3.226373 3.872375 19.918762 -1.611591 5.612300 -1.418914 0.899542 3.756101 -9.043147 1.296396 14.798500 -3.068040 5.719540 19.916916 17.000074 -24.315589 -14.525083 -5.958753 -25.240882 -15.848032 -4.585957 91.851820 -60.522192 -71.436047 32.155649 -20.738388 9.630458 26.061850 19.810250 9.414729 41.702946 0.157535 21.131455 139.866478 63.316351 138.904989 1.049536 27.669829 -82.694634 
1.617737 0.135781 0.793964 31.714651 2.563088 82.479289 33.584390 28.714595 -30.578090 -8.530239 20.535165 54.886597 -5.703427 -0.397536 -13.280240 0.000000 -0.000000 0.000000 -16.926049 -13.958919 -22.377802 -4.109131 -13.083555 79.998344 -1.745273 -9.146759 -48.588845 0.000000 -0.000000 0.000000 -3.358773 3.775176 19.582506 -1.457965 5.370801 -1.350401 0.910880 3.732799 -9.049350 1.330261 14.780239 -2.859357 5.767033 19.926258 17.047733 -24.417560 -14.697529 -5.911428 -24.714311 -15.920384 -4.698802 90.469711 -60.782388 -70.378931 31.629024 -21.049521 9.982564 26.236723 19.552924 9.246244 41.350633 -0.062452 21.124874 139.914812 63.089418 138.753078 1.399601 27.955942 -82.431299 
1.623157 0.135355 0.793665 31.714506 2.771129 82.504213 33.664356 29.049564 -30.540150 -8.427056 20.643852 55.452580 -5.557131 -0.635061 -13.922587 0.000000 -0.000000 0.000000 -17.072813 -14.107682 -22.043188 -4.023494 -12.902077 79.711744 -1.724232 -9.079598 -48.580639 0.000000 -0.000000 0.000000 -3.078580 3.599659 19.543203 -1.520432 5.268156 -1.599298 0.857005 3.755473 -9.010991 1.197818 14.608924 -3.010550 5.839647 20.136476 17.233736 -24.696706 -14.839736 -5.949570 -24.573734 -15.934698 -4.860544 89.972602 -60.995530 -70.135981 31.144779 -21.226305 10.289749 26.190532 19.376212 9.012238 40.974473 -0.479721 20.868252 140.345051 62.737562 139.184116 1.783790 28.449674 -81.638517 
1.627939 0.135280 0.793065 31.684329 2.848730 82.524747 33.729527 29.223161 -30.492130 -8.282947 20.793677 56.026188 -5.596106 -0.753203 -14.569202 0.000000 -0.000000 0.000000 -17.236844 -14.226449 -21.903157 -4.137685 -12.615961 79.628485 -1.593342 -9.156859 -48.495514 0.000000 -0.000000 0.000000 -2.764661 3.479233 19.600691 -1.680142 5.321569 -1.962590 0.795675 3.742171 -8.979361 1.107821 14.383752 -3.462152 5.944197 20.442436 17.608243 -25.054789 -14.937158 -5.962771 -24.630588 -15.980098 -5.018055 89.887203 -60.985176 -70.061043 30.729992 -21.492034 10.773043 26.109544 19.299457 8.758441 40.618449 -0.968466 20.638692 140.271033 62.600038 139.053860 2.256662 29.324461 -80.917715 
1.631838 0.135167 0.792330 31.477199 2.798890 82.660208 33.841029 29.350317 -30.365375 -8.191539 21.083455 56.459731 -5.645396 -0.815101 -15.237068 0.000000 -0.000000 0.000000 -17.308088 -14.163080 -22.091829 -4.125888 -12.161989 79.618168 -1.498315 -9.344705 -48.448282 0.000000 -0.000000 0.000000 -2.586284 3.457207 19.508973 -1.849250 5.498804 -2.166342 0.732916 3.742115 -9.025293 0.986241 14.309825 -3.860936 5.968867 20.690332 17.615922 -25.324251 -14.958300 -6.002125 -24.643169 -15.965888 -5.157870 89.705256 -60.911752 -69.908900 30.303254 -21.655419 11.191881 26.055071 19.246665 8.754697 40.285511 -1.328765 20.649273 139.934190 62.420018 138.603539 2.457796 29.300721 -80.803653 
1.635014 0.134720 0.791421 31.349742 2.739711 82.832043 33.867513 29.410109 -30.388657 -8.240560 21.275859 56.839232 -5.537898 -0.867967 -15.661598 0.000000 -0.000000 0.000000 -17.477239 -14.150760 -22.223765 -3.844475 -11.858172 79.581525 -1.479968 -9.505812 -48.498738 0.000000 -0.000000 0.000000 -2.444030 3.447975 19.342985 -1.950500 5.609876 -2.131484 0.651513 3.784659 -9.107813 0.776783 14.335689 -4.201798 5.912707 20.843759 17.395323 -25.428628 -15.058267 -6.053139 -24.474456 -15.831636 -5.243172 89.114771 -60.886608 -69.452582 30.145722 -21.765304 11.458016 26.016931 19.260951 8.886858 40.070953 -1.621993 20.703616 139.747012 62.218394 138.336985 2.494071 28.934707 -80.862560 
1.637566 0.133962 0.790417 31.422181 2.708089 82.950792 33.795899 29.447083 -30.559492 -8.377488 21.320538 57.194871 -5.327305 -0.902569 -15.878255 0.000000 -0.000000 0.000000 -17.763951 -14.313369 -22.156340 -3.616770 -11.774341 79.604574 -1.468721 -9.438729 -48.629968 0.000000 -0.000000 0.000000 -2.357460 3.438977 19.239108 -1.955660 5.582044 -2.033631 0.600595 3.803395 -9.154496 0.668735 14.451466 -4.399532 5.827162 20.907901 17.299664 -25.437912 -15.212517 -6.067002 -24.174571 -15.655832 -5.346923 88.220155 -60.907783 -68.735556 29.878304 -21.882354 11.787195 26.030704 19.332587 8.960339 39.956742 -1.851670 20.714676 139.500162 62.163712 137.900163 2.515356 28.920991 -80.949960 
